<svg id="visual" viewBox="0 0 50 50" width="50" height="50" xmlns="http://www.w3.org/2000/svg" xmlns:xlink="http://www.w3.org/1999/xlink" version="1.1"><g transform="translate(25.936958758333965 24.97544588999622)"><path d="M14.8 -21.1C19.2 -20.3 22.8 -16.2 23.7 -11.6C24.5 -7 22.7 -2 22 3.3C21.4 8.5 22 14.1 19.4 16.3C16.7 18.5 10.8 17.4 5.8 18.3C0.8 19.2 -3.3 22.1 -6.1 21.1C-8.8 20 -10.3 15.1 -14.3 11.7C-18.2 8.3 -24.6 6.4 -25.6 3.3C-26.7 0.2 -22.4 -4.1 -18.6 -6.9C-14.8 -9.7 -11.5 -11.2 -8.4 -12.6C-5.4 -14.1 -2.7 -15.5 1.3 -17.5C5.2 -19.5 10.5 -21.9 14.8 -21.1" fill="#e88737"></path></g></svg>