<svg id="visual" viewBox="0 0 100 100" width="100" height="100" xmlns="http://www.w3.org/2000/svg" xmlns:xlink="http://www.w3.org/1999/xlink" version="1.1"><g transform="translate(51.30890204030424 50.41962998077125)"><path d="M23.8 -29.8C31.6 -27.2 39.1 -21.2 41.3 -13.6C43.4 -6.1 40.3 3 37.1 11.8C33.9 20.7 30.8 29.4 24.6 31.5C18.4 33.7 9.2 29.3 0.2 29.1C-8.8 28.8 -17.6 32.6 -24.8 30.8C-31.9 28.9 -37.3 21.4 -40.9 12.8C-44.4 4.1 -46 -5.7 -43.1 -13.9C-40.3 -22.2 -33.1 -28.9 -25.2 -31.5C-17.2 -34.1 -8.6 -32.5 -0.3 -32.1C8 -31.7 16.1 -32.4 23.8 -29.8" fill="#438496"></path></g></svg>