<svg id="visual" viewBox="0 0 150 100" width="150" height="100" xmlns="http://www.w3.org/2000/svg" xmlns:xlink="http://www.w3.org/1999/xlink" version="1.1"><g transform="translate(79.20790380362052 46.68620376949715)"><path d="M25.1 -40.9C33.2 -38.8 40.8 -33.4 46.1 -26C51.3 -18.7 54.2 -9.3 54.3 0.1C54.5 9.5 51.9 19 45.5 24.3C39.1 29.7 28.8 30.9 20.6 34.6C12.3 38.4 6.2 44.7 -1.5 47.3C-9.2 49.9 -18.3 48.8 -28.3 46C-38.3 43.3 -49 38.9 -54.8 30.9C-60.5 23 -61.3 11.5 -62.1 -0.5C-63 -12.5 -64 -25 -56.8 -30.4C-49.6 -35.8 -34.2 -34.2 -23.3 -34.7C-12.5 -35.3 -6.3 -38.2 1.1 -40.1C8.5 -42.1 17 -43.1 25.1 -40.9" fill="#1000bf"></path></g></svg>