<svg id="visual" viewBox="0 0 50 50" width="50" height="50" xmlns="http://www.w3.org/2000/svg" xmlns:xlink="http://www.w3.org/1999/xlink" version="1.1"><g transform="translate(23.77037397324299 24.179598128137453)"><path d="M6.8 -11.1C10.3 -9.8 15.5 -10.9 18.2 -9.4C20.9 -8 20.9 -4 21.1 0.1C21.2 4.2 21.4 8.3 18.7 9.7C16 11 10.3 9.6 6.7 10.7C3.1 11.8 1.6 15.4 -1.1 17.3C-3.8 19.3 -7.7 19.6 -9.7 17.6C-11.7 15.6 -11.9 11.3 -12.8 8C-13.7 4.7 -15.4 2.3 -16.8 -0.8C-18.3 -4 -19.5 -8 -18 -10.3C-16.5 -12.6 -12.3 -13.2 -8.8 -14.6C-5.3 -15.9 -2.7 -18 -0.5 -17.1C1.7 -16.2 3.3 -12.4 6.8 -11.1" fill="#0f8bf3"></path></g></svg>