<svg id="visual" viewBox="0 0 540 960" width="540" height="960" xmlns="http://www.w3.org/2000/svg" xmlns:xlink="http://www.w3.org/1999/xlink" version="1.1"><path d="M0 404L8.2 384.8C16.3 365.7 32.7 327.3 49 313C65.3 298.7 81.7 308.3 98 308.3C114.3 308.3 130.7 298.7 147 309.8C163.3 321 179.7 353 196 332.2C212.3 311.3 228.7 237.7 245.2 220C261.7 202.3 278.3 240.7 294.8 259.8C311.3 279 327.7 279 344 263C360.3 247 376.7 215 393 250.3C409.3 285.7 425.7 388.3 442 412.3C458.3 436.3 474.7 381.7 491 354.3C507.3 327 523.7 327 531.8 327L540 327L540 0L531.8 0C523.7 0 507.3 0 491 0C474.7 0 458.3 0 442 0C425.7 0 409.3 0 393 0C376.7 0 360.3 0 344 0C327.7 0 311.3 0 294.8 0C278.3 0 261.7 0 245.2 0C228.7 0 212.3 0 196 0C179.7 0 163.3 0 147 0C130.7 0 114.3 0 98 0C81.7 0 65.3 0 49 0C32.7 0 16.3 0 8.2 0L0 0Z" fill="#6198ff"></path><path d="M0 481L8.2 476.2C16.3 471.3 32.7 461.7 49 450.5C65.3 439.3 81.7 426.7 98 415.5C114.3 404.3 130.7 394.7 147 401C163.3 407.3 179.7 429.7 196 412C212.3 394.3 228.7 336.7 245.2 327.2C261.7 317.7 278.3 356.3 294.8 369.2C311.3 382 327.7 369 344 345C360.3 321 376.7 286 393 330.8C409.3 375.7 425.7 500.3 442 530.7C458.3 561 474.7 497 491 474.7C507.3 452.3 523.7 471.7 531.8 481.3L540 491L540 325L531.8 325C523.7 325 507.3 325 491 352.3C474.7 379.7 458.3 434.3 442 410.3C425.7 386.3 409.3 283.7 393 248.3C376.7 213 360.3 245 344 261C327.7 277 311.3 277 294.8 257.8C278.3 238.7 261.7 200.3 245.2 218C228.7 235.7 212.3 309.3 196 330.2C179.7 351 163.3 319 147 307.8C130.7 296.7 114.3 306.3 98 306.3C81.7 306.3 65.3 296.7 49 311C32.7 325.3 16.3 363.7 8.2 382.8L0 402Z" fill="#3c80ff"></path><path d="M0 635L8.2 644.5C16.3 654 32.7 673 49 666.5C65.3 660 81.7 628 98 624.8C114.3 621.7 130.7 647.3 147 653.8C163.3 660.3 179.7 647.7 196 649.3C212.3 651 228.7 667 245.2 665.3C261.7 663.7 278.3 644.3 294.8 628.3C311.3 612.3 327.7 599.7 344 602.8C360.3 606 376.7 625 393 657C409.3 689 425.7 734 442 719.7C458.3 705.3 474.7 631.7 491 604.3C507.3 577 523.7 596 531.8 605.5L540 615L540 489L531.8 479.3C523.7 469.7 507.3 450.3 491 472.7C474.7 495 458.3 559 442 528.7C425.7 498.3 409.3 373.7 393 328.8C376.7 284 360.3 319 344 343C327.7 367 311.3 380 294.8 367.2C278.3 354.3 261.7 315.7 245.2 325.2C228.7 334.7 212.3 392.3 196 410C179.7 427.7 163.3 405.3 147 399C130.7 392.7 114.3 402.3 98 413.5C81.7 424.7 65.3 437.3 49 448.5C32.7 459.7 16.3 469.3 8.2 474.2L0 479Z" fill="#0066ff"></path><path d="M0 788L8.2 797.7C16.3 807.3 32.7 826.7 49 834.7C65.3 842.7 81.7 839.3 98 845.7C114.3 852 130.7 868 147 869.7C163.3 871.3 179.7 858.7 196 842.7C212.3 826.7 228.7 807.3 245.2 796.2C261.7 785 278.3 782 294.8 785.2C311.3 788.3 327.7 797.7 344 812C360.3 826.3 376.7 845.7 393 860.2C409.3 874.7 425.7 884.3 442 868.3C458.3 852.3 474.7 810.7 491 805.8C507.3 801 523.7 833 531.8 849L540 865L540 613L531.8 603.5C523.7 594 507.3 575 491 602.3C474.7 629.7 458.3 703.3 442 717.7C425.7 732 409.3 687 393 655C376.7 623 360.3 604 344 600.8C327.7 597.7 311.3 610.3 294.8 626.3C278.3 642.3 261.7 661.7 245.2 663.3C228.7 665 212.3 649 196 647.3C179.7 645.7 163.3 658.3 147 651.8C130.7 645.3 114.3 619.7 98 622.8C81.7 626 65.3 658 49 664.5C32.7 671 16.3 652 8.2 642.5L0 633Z" fill="#0059dd"></path><path d="M0 961L8.2 961C16.3 961 32.7 961 49 961C65.3 961 81.7 961 98 961C114.3 961 130.7 961 147 961C163.3 961 179.7 961 196 961C212.3 961 228.7 961 245.2 961C261.7 961 278.3 961 294.8 961C311.3 961 327.7 961 344 961C360.3 961 376.7 961 393 961C409.3 961 425.7 961 442 961C458.3 961 474.7 961 491 961C507.3 961 523.7 961 531.8 961L540 961L540 863L531.8 847C523.7 831 507.3 799 491 803.8C474.7 808.7 458.3 850.3 442 866.3C425.7 882.3 409.3 872.7 393 858.2C376.7 843.7 360.3 824.3 344 810C327.7 795.7 311.3 786.3 294.8 783.2C278.3 780 261.7 783 245.2 794.2C228.7 805.3 212.3 824.7 196 840.7C179.7 856.7 163.3 869.3 147 867.7C130.7 866 114.3 850 98 843.7C81.7 837.3 65.3 840.7 49 832.7C32.7 824.7 16.3 805.3 8.2 795.7L0 786Z" fill="#004cbb"></path></svg>