<svg id="visual" viewBox="0 0 360 619" width="360" height="619" xmlns="http://www.w3.org/2000/svg" xmlns:xlink="http://www.w3.org/1999/xlink" version="1.1"><rect x="0" y="0" width="360" height="619" fill="#ffffff"></rect><defs><linearGradient id="grad1_0" x1="0%" y1="0%" x2="100%" y2="100%"><stop offset="30%" stop-color="#cd5360" stop-opacity="1"></stop><stop offset="70%" stop-color="#cd5360" stop-opacity="1"></stop></linearGradient></defs><defs><linearGradient id="grad1_1" x1="0%" y1="0%" x2="100%" y2="100%"><stop offset="30%" stop-color="#cd5360" stop-opacity="1"></stop><stop offset="70%" stop-color="#de8085" stop-opacity="1"></stop></linearGradient></defs><defs><linearGradient id="grad1_2" x1="0%" y1="0%" x2="100%" y2="100%"><stop offset="30%" stop-color="#edaaac" stop-opacity="1"></stop><stop offset="70%" stop-color="#de8085" stop-opacity="1"></stop></linearGradient></defs><defs><linearGradient id="grad1_3" x1="0%" y1="0%" x2="100%" y2="100%"><stop offset="30%" stop-color="#edaaac" stop-opacity="1"></stop><stop offset="70%" stop-color="#f8d4d5" stop-opacity="1"></stop></linearGradient></defs><defs><linearGradient id="grad1_4" x1="0%" y1="0%" x2="100%" y2="100%"><stop offset="30%" stop-color="#ffffff" stop-opacity="1"></stop><stop offset="70%" stop-color="#f8d4d5" stop-opacity="1"></stop></linearGradient></defs><defs><linearGradient id="grad2_0" x1="0%" y1="0%" x2="100%" y2="100%"><stop offset="30%" stop-color="#cd5360" stop-opacity="1"></stop><stop offset="70%" stop-color="#cd5360" stop-opacity="1"></stop></linearGradient></defs><defs><linearGradient id="grad2_1" x1="0%" y1="0%" x2="100%" y2="100%"><stop offset="30%" stop-color="#de8085" stop-opacity="1"></stop><stop offset="70%" stop-color="#cd5360" stop-opacity="1"></stop></linearGradient></defs><defs><linearGradient id="grad2_2" x1="0%" y1="0%" x2="100%" y2="100%"><stop offset="30%" stop-color="#de8085" stop-opacity="1"></stop><stop offset="70%" stop-color="#edaaac" stop-opacity="1"></stop></linearGradient></defs><defs><linearGradient id="grad2_3" x1="0%" y1="0%" x2="100%" y2="100%"><stop offset="30%" stop-color="#f8d4d5" stop-opacity="1"></stop><stop offset="70%" stop-color="#edaaac" stop-opacity="1"></stop></linearGradient></defs><defs><linearGradient id="grad2_4" x1="0%" y1="0%" x2="100%" y2="100%"><stop offset="30%" stop-color="#f8d4d5" stop-opacity="1"></stop><stop offset="70%" stop-color="#ffffff" stop-opacity="1"></stop></linearGradient></defs><g transform="translate(360, 0)"><path d="M0 322.2C-41 309.2 -82 296.1 -114 275.3C-146 254.6 -169 226.1 -201.5 201.5C-234 177 -276 156.3 -297.7 123.3C-319.4 90.4 -320.8 45.2 -322.2 0L0 0Z" fill="#fceaea"></path><path d="M0 257.8C-32.8 247.3 -65.6 236.9 -91.2 220.3C-116.8 203.6 -135.2 180.9 -161.2 161.2C-187.2 141.6 -220.8 125 -238.2 98.7C-255.5 72.3 -256.7 36.1 -257.8 0L0 0Z" fill="#f3bfc0"></path><path d="M0 193.3C-24.6 185.5 -49.2 177.6 -68.4 165.2C-87.6 152.7 -101.4 135.7 -120.9 120.9C-140.4 106.2 -165.6 93.8 -178.6 74C-191.6 54.2 -192.5 27.1 -193.3 0L0 0Z" fill="#e69598"></path><path d="M0 128.9C-16.4 123.7 -32.8 118.4 -45.6 110.1C-58.4 101.8 -67.6 90.4 -80.6 80.6C-93.6 70.8 -110.4 62.5 -119.1 49.3C-127.8 36.1 -128.3 18.1 -128.9 0L0 0Z" fill="#d66a72"></path><path d="M0 64.4C-8.2 61.8 -16.4 59.2 -22.8 55.1C-29.2 50.9 -33.8 45.2 -40.3 40.3C-46.8 35.4 -55.2 31.3 -59.5 24.7C-63.9 18.1 -64.2 9 -64.4 0L0 0Z" fill="#cd5360"></path></g><g transform="translate(0, 619)"><path d="M0 -322.2C45.7 -322.1 91.4 -322 123.3 -297.7C155.2 -273.4 173.2 -225 188.8 -188.8C204.4 -152.6 217.5 -128.5 239.3 -99.1C261.1 -69.7 291.7 -34.8 322.2 0L0 0Z" fill="#fceaea"></path><path d="M0 -257.8C36.6 -257.7 73.1 -257.6 98.7 -238.2C124.2 -218.7 138.6 -180 151 -151C163.5 -122.1 174 -102.8 191.4 -79.3C208.9 -55.7 233.3 -27.9 257.8 0L0 0Z" fill="#f3bfc0"></path><path d="M0 -193.3C27.4 -193.3 54.9 -193.2 74 -178.6C93.1 -164.1 103.9 -135 113.3 -113.3C122.6 -91.5 130.5 -77.1 143.6 -59.5C156.7 -41.8 175 -20.9 193.3 0L0 0Z" fill="#e69598"></path><path d="M0 -128.9C18.3 -128.8 36.6 -128.8 49.3 -119.1C62.1 -109.4 69.3 -90 75.5 -75.5C81.7 -61 87 -51.4 95.7 -39.6C104.4 -27.9 116.7 -13.9 128.9 0L0 0Z" fill="#d66a72"></path><path d="M0 -64.4C9.1 -64.4 18.3 -64.4 24.7 -59.5C31 -54.7 34.6 -45 37.8 -37.8C40.9 -30.5 43.5 -25.7 47.9 -19.8C52.2 -13.9 58.3 -7 64.4 0L0 0Z" fill="#cd5360"></path></g></svg>