<svg id="visual" viewBox="0 0 540 960" width="540" height="960" xmlns="http://www.w3.org/2000/svg" xmlns:xlink="http://www.w3.org/1999/xlink" version="1.1"><rect x="0" y="0" width="540" height="960" fill="#ffffff"></rect><defs><linearGradient id="grad1_0" x1="0%" y1="0%" x2="100%" y2="100%"><stop offset="30%" stop-color="#b37d4e" stop-opacity="1"></stop><stop offset="70%" stop-color="#b37d4e" stop-opacity="1"></stop></linearGradient></defs><defs><linearGradient id="grad1_1" x1="0%" y1="0%" x2="100%" y2="100%"><stop offset="30%" stop-color="#b37d4e" stop-opacity="1"></stop><stop offset="70%" stop-color="#ddbca3" stop-opacity="1"></stop></linearGradient></defs><defs><linearGradient id="grad1_2" x1="0%" y1="0%" x2="100%" y2="100%"><stop offset="30%" stop-color="#ffffff" stop-opacity="1"></stop><stop offset="70%" stop-color="#ddbca3" stop-opacity="1"></stop></linearGradient></defs><defs><linearGradient id="grad2_0" x1="0%" y1="0%" x2="100%" y2="100%"><stop offset="30%" stop-color="#b37d4e" stop-opacity="1"></stop><stop offset="70%" stop-color="#b37d4e" stop-opacity="1"></stop></linearGradient></defs><defs><linearGradient id="grad2_1" x1="0%" y1="0%" x2="100%" y2="100%"><stop offset="30%" stop-color="#ddbca3" stop-opacity="1"></stop><stop offset="70%" stop-color="#b37d4e" stop-opacity="1"></stop></linearGradient></defs><defs><linearGradient id="grad2_2" x1="0%" y1="0%" x2="100%" y2="100%"><stop offset="30%" stop-color="#ddbca3" stop-opacity="1"></stop><stop offset="70%" stop-color="#ffffff" stop-opacity="1"></stop></linearGradient></defs><g transform="translate(540, 0)"><path d="M0 486C-43 434.9 -86 383.7 -153.1 369.6C-220.1 355.4 -311.2 378.1 -343.7 343.7C-376.1 309.2 -350 217.6 -364 150.8C-378 84 -432 42 -486 0L0 0Z" fill="#efddd0"></path><path d="M0 324C-28.7 289.9 -57.4 255.8 -102 246.4C-146.7 236.9 -207.4 252.1 -229.1 229.1C-250.8 206.1 -233.4 145.1 -242.7 100.5C-252 56 -288 28 -324 0L0 0Z" fill="#c99c78"></path><path d="M0 162C-14.3 145 -28.7 127.9 -51 123.2C-73.4 118.5 -103.7 126 -114.6 114.6C-125.4 103.1 -116.7 72.5 -121.3 50.3C-126 28 -144 14 -162 0L0 0Z" fill="#b37d4e"></path></g><g transform="translate(0, 960)"><path d="M0 -486C61.7 -478.2 123.5 -470.4 186 -449C248.5 -427.6 311.7 -392.7 340.1 -340.1C368.5 -287.5 362.1 -217.3 380.6 -157.7C399.1 -98 442.6 -49 486 0L0 0Z" fill="#efddd0"></path><path d="M0 -324C41.2 -318.8 82.3 -313.6 124 -299.3C165.6 -285.1 207.8 -261.8 226.7 -226.7C245.7 -191.7 241.4 -144.9 253.8 -105.1C266.1 -65.4 295 -32.7 324 0L0 0Z" fill="#c99c78"></path><path d="M0 -162C20.6 -159.4 41.2 -156.8 62 -149.7C82.8 -142.5 103.9 -130.9 113.4 -113.4C122.8 -95.8 120.7 -72.4 126.9 -52.6C133 -32.7 147.5 -16.3 162 0L0 0Z" fill="#b37d4e"></path></g></svg>