<svg id="visual" viewBox="0 0 540 960" width="540" height="960" xmlns="http://www.w3.org/2000/svg" xmlns:xlink="http://www.w3.org/1999/xlink" version="1.1"><path d="M0 411L12.8 394C25.7 377 51.3 343 77 346.8C102.7 350.7 128.3 392.3 154 390.2C179.7 388 205.3 342 231.2 343.7C257 345.3 283 394.7 308.8 414.5C334.7 434.3 360.3 424.7 386 406.2C411.7 387.7 437.3 360.3 463 364C488.7 367.7 514.3 402.3 527.2 419.7L540 437L540 961L527.2 961C514.3 961 488.7 961 463 961C437.3 961 411.7 961 386 961C360.3 961 334.7 961 308.8 961C283 961 257 961 231.2 961C205.3 961 179.7 961 154 961C128.3 961 102.7 961 77 961C51.3 961 25.7 961 12.8 961L0 961Z" fill="#fa7268"></path><path d="M0 409L12.8 416.5C25.7 424 51.3 439 77 443.8C102.7 448.7 128.3 443.3 154 438C179.7 432.7 205.3 427.3 231.2 446.2C257 465 283 508 308.8 514.8C334.7 521.7 360.3 492.3 386 483.5C411.7 474.7 437.3 486.3 463 477.7C488.7 469 514.3 440 527.2 425.5L540 411L540 961L527.2 961C514.3 961 488.7 961 463 961C437.3 961 411.7 961 386 961C360.3 961 334.7 961 308.8 961C283 961 257 961 231.2 961C205.3 961 179.7 961 154 961C128.3 961 102.7 961 77 961C51.3 961 25.7 961 12.8 961L0 961Z" fill="#ef5f67"></path><path d="M0 604L12.8 596.5C25.7 589 51.3 574 77 577.2C102.7 580.3 128.3 601.7 154 609.5C179.7 617.3 205.3 611.7 231.2 605.7C257 599.7 283 593.3 308.8 581.8C334.7 570.3 360.3 553.7 386 550.3C411.7 547 437.3 557 463 565.2C488.7 573.3 514.3 579.7 527.2 582.8L540 586L540 961L527.2 961C514.3 961 488.7 961 463 961C437.3 961 411.7 961 386 961C360.3 961 334.7 961 308.8 961C283 961 257 961 231.2 961C205.3 961 179.7 961 154 961C128.3 961 102.7 961 77 961C51.3 961 25.7 961 12.8 961L0 961Z" fill="#e34c67"></path><path d="M0 675L12.8 681.3C25.7 687.7 51.3 700.3 77 704C102.7 707.7 128.3 702.3 154 700.5C179.7 698.7 205.3 700.3 231.2 701.3C257 702.3 283 702.7 308.8 699.5C334.7 696.3 360.3 689.7 386 681.3C411.7 673 437.3 663 463 674.5C488.7 686 514.3 719 527.2 735.5L540 752L540 961L527.2 961C514.3 961 488.7 961 463 961C437.3 961 411.7 961 386 961C360.3 961 334.7 961 308.8 961C283 961 257 961 231.2 961C205.3 961 179.7 961 154 961C128.3 961 102.7 961 77 961C51.3 961 25.7 961 12.8 961L0 961Z" fill="#d53867"></path><path d="M0 772L12.8 783.3C25.7 794.7 51.3 817.3 77 824.8C102.7 832.3 128.3 824.7 154 832.3C179.7 840 205.3 863 231.2 866.7C257 870.3 283 854.7 308.8 839.7C334.7 824.7 360.3 810.3 386 802.5C411.7 794.7 437.3 793.3 463 806.7C488.7 820 514.3 848 527.2 862L540 876L540 961L527.2 961C514.3 961 488.7 961 463 961C437.3 961 411.7 961 386 961C360.3 961 334.7 961 308.8 961C283 961 257 961 231.2 961C205.3 961 179.7 961 154 961C128.3 961 102.7 961 77 961C51.3 961 25.7 961 12.8 961L0 961Z" fill="#c62368"></path></svg>