<svg id="visual" viewBox="0 0 540 960" width="540" height="960" xmlns="http://www.w3.org/2000/svg" xmlns:xlink="http://www.w3.org/1999/xlink" version="1.1"><rect x="0" y="0" width="540" height="960" fill="#ffffff"></rect><defs><linearGradient id="grad1_0" x1="0%" y1="0%" x2="100%" y2="100%"><stop offset="30%" stop-color="#ff8e4d" stop-opacity="1"></stop><stop offset="70%" stop-color="#ff8e4d" stop-opacity="1"></stop></linearGradient></defs><defs><linearGradient id="grad1_1" x1="0%" y1="0%" x2="100%" y2="100%"><stop offset="30%" stop-color="#ff8e4d" stop-opacity="1"></stop><stop offset="70%" stop-color="#ffffff" stop-opacity="1"></stop></linearGradient></defs><defs><linearGradient id="grad2_0" x1="0%" y1="0%" x2="100%" y2="100%"><stop offset="30%" stop-color="#ff8e4d" stop-opacity="1"></stop><stop offset="70%" stop-color="#ff8e4d" stop-opacity="1"></stop></linearGradient></defs><defs><linearGradient id="grad2_1" x1="0%" y1="0%" x2="100%" y2="100%"><stop offset="30%" stop-color="#ffffff" stop-opacity="1"></stop><stop offset="70%" stop-color="#ff8e4d" stop-opacity="1"></stop></linearGradient></defs><g transform="translate(540, 0)"><path d="M0 459C-39.1 446.8 -78.2 434.7 -111 414.4C-143.9 394.1 -170.5 365.7 -199 344.7C-227.5 323.7 -258 310.2 -294.2 294.2C-330.3 278.1 -372.1 259.5 -397.5 229.5C-422.9 199.5 -432 157.9 -439.5 117.8C-447 77.6 -453 38.8 -459 0L0 0Z" fill="#ffc7a4"></path><path d="M0 229.5C-19.5 223.4 -39.1 217.3 -55.5 207.2C-71.9 197 -85.2 182.8 -99.5 172.3C-113.8 161.9 -129 155.1 -147.1 147.1C-165.1 139.1 -186 129.8 -198.8 114.8C-211.5 99.7 -216 79 -219.7 58.9C-223.5 38.8 -226.5 19.4 -229.5 0L0 0Z" fill="#ff8e4d"></path></g><g transform="translate(0, 960)"><path d="M0 -459C41.1 -451.4 82.2 -443.8 113.1 -422.1C144 -400.4 164.8 -364.5 201 -348.1C237.2 -331.8 288.8 -334.9 310.4 -310.4C332 -285.9 323.7 -233.7 345.5 -199.5C367.4 -165.3 419.4 -149.1 443.4 -118.8C467.3 -88.5 463.2 -44.3 459 0L0 0Z" fill="#ffc7a4"></path><path d="M0 -229.5C20.5 -225.7 41.1 -221.9 56.6 -211.1C72 -200.2 82.4 -182.3 100.5 -174.1C118.6 -165.9 144.4 -167.5 155.2 -155.2C166 -143 161.9 -116.9 172.8 -99.8C183.7 -82.6 209.7 -74.5 221.7 -59.4C233.7 -44.3 231.6 -22.1 229.5 0L0 0Z" fill="#ff8e4d"></path></g></svg>